<?xml version="1.0" encoding="utf-8"?>
<!-- Generator: Adobe Illustrator 24.1.0, SVG Export Plug-In . SVG Version: 6.00 Build 0)  -->
<svg version="1.1" id="图层_1" xmlns="http://www.w3.org/2000/svg" xmlns:xlink="http://www.w3.org/1999/xlink" x="0px" y="0px"
	 viewBox="0 0 520 123" style="enable-background:new 0 0 520 123;" xml:space="preserve">
<style type="text/css">
	.st0{fill:#C9D523;}
	.st1{fill:#84B82E;}
	.st2{fill:#26A23A;}
	.st3{fill:#0D65AA;}
	.st4{fill:#78C4E6;}
	.st5{fill:#141F40;}
	.st6{fill:#1E9BD1;}
	.st7{fill:#21A339;}
	.st8{fill:#006036;}
	.st9{fill:#0080A1;}
</style>
<polygon class="st0" points="31.5,70 10.8,70 6.3,75.5 31.5,75.5 "/>
<rect x="38.2" y="70" transform="matrix(1 -1.221729e-03 1.221729e-03 1 -8.878978e-02 5.639897e-02)" class="st1" width="15.9" height="5.5"/>
<polygon class="st2" points="32.1,37 32.1,53.1 37.6,46.4 37.6,37 "/>
<polygon class="st1" points="32.5,35.2 3.4,70.5 6.1,75.2 37.6,37 "/>
<polygon class="st3" points="25.9,69.4 46.4,44.5 41.3,42.7 19.3,69.4 "/>
<polygon class="st3" points="18.6,78.1 20.4,76 13.7,76 12,78.1 "/>
<rect x="40.9" y="76" class="st4" width="5.5" height="12"/>
<polygon class="st5" points="47,84 54.1,84 54.1,78.5 47,78.6 "/>
<polygon class="st6" points="40.5,78.6 12,78.6 15.2,84.1 40.5,84 "/>
<polygon class="st4" points="40.9,69.4 46.4,69.4 46.4,45.2 40.9,51.8 "/>
<rect x="32.1" y="84.6" class="st7" width="5.5" height="3.4"/>
<polygon class="st8" points="32,62.6 32,78 37.5,78 37.5,55.9 "/>
<path class="st9" d="M70.4,88.4v-1.1h8.5v1.1h-3.4v9h-1.6v-9L70.4,88.4z"/>
<path class="st9" d="M81,97.3V86.7h1.6v3.3h2c2,0,3,0.9,3,2.6v4.7h-1.7V93c0-1.2-0.6-1.8-2-1.8h-1.4v6.2L81,97.3z"/>
<path class="st9" d="M96.8,94.3h-5.7c0,1.3,1.1,2.3,2.4,2.3c0.1,0,0.1,0,0.2,0c1.2,0,2.3-0.6,3-1.5v1.2c-0.9,0.9-2.1,1.4-3.3,1.3
	c-2.5-0.1-3.8-1.3-3.9-3.6c0.1-2.5,1.3-3.8,3.7-3.9S96.9,91.5,96.8,94.3z M91.2,93.2h4c0.1-1.1-0.7-2-1.8-2.1c-0.1,0-0.2,0-0.2,0
	C92,91.2,91.4,91.9,91.2,93.2z"/>
<path class="st9" d="M104,97.4v-10h7v1.1h-5.4v3.4h5.1v1h-5.1v4.5L104,97.4z"/>
<path class="st9" d="M116.6,97.6c-2.3-0.1-3.5-1.3-3.6-3.7c0.1-2.4,1.3-3.7,3.7-3.8c2.3,0.1,3.5,1.3,3.6,3.8
	C120.3,96.3,119,97.5,116.6,97.6z M116.6,96.6c1.3-0.1,2-1,2-2.7s-0.7-2.7-2-2.8s-2,1-2,2.8S115.4,96.5,116.6,96.6L116.6,96.6z"/>
<path class="st9" d="M122.5,94.8v-4.6h1.6v4.4c-0.2,0.9,0.4,1.7,1.3,1.9c0.2,0,0.4,0,0.6,0h1.5v-6.3h1.6v7.2h-3.8
	C123.4,97.6,122.4,96.7,122.5,94.8z"/>
<path class="st9" d="M131.5,97.5v-5c-0.2-1.2,0.7-2.3,1.9-2.4c0.2,0,0.4,0,0.6,0h2.3v1.1h-1.8c-0.6-0.1-1.2,0.4-1.3,1
	c0,0.1,0,0.2,0,0.3v5.1H131.5z"/>
<path class="st9" d="M137.7,91.3v-1.1h1.2v-2.9h1.6v2.9h1.6v1.1h-1.6v4.2c0,0.7,0.2,1,0.8,1c0.3,0,0.6-0.1,0.9-0.3V97
	c-0.4,0.3-0.9,0.5-1.4,0.5c-1.3,0-1.9-0.6-1.9-1.9v-4.3H137.7z"/>
<path class="st9" d="M144.4,97.3V86.7h1.6v3.3h2c2,0,3,0.9,3,2.6v4.7h-1.6V93c0-1.2-0.6-1.8-2-1.8H146v6.2L144.4,97.3z"/>
<path class="st9" d="M157.6,97.4l4-10h1.9l4,10h-1.8l-1-2.7h-4.4l-1.1,2.7H157.6z M162.6,88.9l-1.8,4.8h3.6L162.6,88.9z"/>
<path class="st9" d="M173.1,90.2v1.1h-1.4v6h-1.6v-6h-1v-1.1h1V89c0-1.6,0.7-2.4,2.3-2.3h1.7v1.1H173c-0.8,0-1.2,0.4-1.2,1.2v1.3
	L173.1,90.2z"/>
<path class="st9" d="M179.2,90.2v1.1h-1.4v6h-1.6v-6h-1v-1.1h1V89c0-1.6,0.7-2.4,2.3-2.3h1.7v1.1h-1.1c-0.8,0-1.2,0.4-1.2,1.2v1.3
	L179.2,90.2z"/>
<path class="st9" d="M181.6,88.8v-1.5h1.6v1.5H181.6z M181.6,97.4v-7.1h1.6v7.1H181.6z"/>
<path class="st9" d="M185.8,97.3V86.7h1.6v10.6H185.8z"/>
<path class="st9" d="M189.9,88.8v-1.5h1.6v1.5H189.9z M189.9,97.4v-7.1h1.6v7.1H189.9z"/>
<path class="st9" d="M197.2,92.8h1.8c0.1-1.2-0.5-1.8-1.8-1.8c-1-0.1-1.9,0.5-2.2,1.4h-1.2c0.4-1.6,1.5-2.4,3.4-2.4
	c2,0,3,0.8,2.9,2.6v4.9h-3.2c-2,0-3-0.8-3.1-2.2C193.8,93.7,194.9,92.8,197.2,92.8z M199,96.6v-2.7h-1.9c-1.4,0-2.1,0.5-2.1,1.4
	s0.6,1.3,1.9,1.3L199,96.6z"/>
<path class="st9" d="M202.2,91.3v-1.1h1.2v-2.9h1.6v2.9h1.6v1.1H205v4.2c0,0.7,0.3,1,0.8,1c0.3,0,0.6-0.1,0.9-0.3V97
	c-0.4,0.4-0.9,0.5-1.4,0.5c-1.3,0-1.9-0.6-1.9-1.9v-4.3H202.2z"/>
<path class="st9" d="M215.8,94.3h-5.7c0,1.3,1.1,2.3,2.4,2.3c0.1,0,0.2,0,0.2,0c1.2,0,2.3-0.6,3-1.5v1.2c-0.9,0.9-2.1,1.4-3.4,1.3
	c-2.5-0.1-3.8-1.3-3.9-3.6c0.1-2.5,1.3-3.8,3.7-3.9C214.5,90,215.7,91.4,215.8,94.3z M210.2,93.2h4c0.1-1.1-0.7-2-1.8-2.1
	c-0.1,0-0.2,0-0.2,0C211,91.2,210.3,91.9,210.2,93.2L210.2,93.2z"/>
<path class="st9" d="M221.8,90.1h1.5v-3.4h1.6v10.8h-3.1c-2.5,0-3.8-1.2-3.9-3.7C217.9,91.4,219.2,90.1,221.8,90.1z M223.3,96.6
	v-5.4h-1.2c-1.7,0-2.5,0.9-2.5,2.7s0.9,2.7,2.5,2.7H223.3z"/>
<path class="st9" d="M232.6,97.4v-10h1.6v4.3h5.2v-4.4h1.6v10h-1.6v-4.6h-5.2v4.7L232.6,97.4z"/>
<path class="st9" d="M246.7,97.6c-2.3-0.1-3.5-1.3-3.6-3.7c0.1-2.4,1.3-3.7,3.7-3.8c2.3,0.1,3.5,1.3,3.6,3.8
	C250.4,96.3,249.1,97.5,246.7,97.6z M246.7,96.6c1.3-0.1,2-1,2-2.7s-0.7-2.7-2-2.8s-2,1-2,2.8S245.4,96.5,246.7,96.6L246.7,96.6z"/>
<path class="st9" d="M252.1,96.2v-1.2c0.8,1,2,1.6,3.3,1.7c1.1,0,1.7-0.3,1.6-1s-0.5-1-1.6-1.2c-2-0.3-3.1-1.1-3.1-2.3
	s1.1-1.9,2.9-2c1.8-0.1,2.8,0.8,3.1,2.1h-1.5c-0.1-0.7-0.6-1.1-1.5-1.1s-1.4,0.3-1.4,0.9s0.6,1,1.9,1.2c1.9,0.3,2.8,1.1,2.9,2.3
	c0,1.4-1,2-3.2,2C254.2,97.6,253,97.1,252.1,96.2z"/>
<path class="st9" d="M260.7,100.3V90.1h3.1c2.6,0,3.9,1.3,3.8,3.8c0,2.5-1.3,3.8-3.8,3.7h-1.6v2.7H260.7z M262.3,96.6h1.2
	c1.6,0,2.5-0.9,2.5-2.7s-0.8-2.7-2.5-2.7h-1.2V96.6z"/>
<path class="st9" d="M269.6,88.8v-1.5h1.6v1.5H269.6z M269.6,97.4v-7.1h1.6v7.1H269.6z"/>
<path class="st9" d="M273.1,91.3v-1.1h1.2v-2.9h1.6v2.9h1.6v1.1h-1.6v4.2c0,0.7,0.3,1,0.8,1c0.3,0,0.6-0.1,0.9-0.3V97
	c-0.4,0.4-0.9,0.5-1.4,0.5c-1.3,0-1.9-0.6-1.9-1.9v-4.3H273.1z"/>
<path class="st9" d="M282.5,92.8h1.8c0.1-1.2-0.5-1.8-1.8-1.8c-0.9-0.1-1.8,0.5-2.1,1.4h-1.3c0.4-1.6,1.5-2.4,3.4-2.4s3,0.8,2.9,2.6
	v4.9h-3.3c-2,0-3-0.8-3.1-2.2C279.1,93.7,280.2,92.8,282.5,92.8z M284.3,96.6v-2.7h-1.9c-1.4,0-2.1,0.5-2.1,1.4s0.6,1.3,1.9,1.3
	L284.3,96.6z"/>
<path class="st9" d="M288,97.3V86.7h1.6v10.6H288z"/>
<path class="st9" d="M300.4,97.6c-2.3-0.1-3.5-1.3-3.6-3.7c0.1-2.4,1.3-3.7,3.7-3.8c2.3,0.1,3.5,1.3,3.6,3.8
	C304,96.3,302.8,97.5,300.4,97.6z M300.4,96.6c1.3-0.1,2-1,2-2.7s-0.7-2.7-2-2.8s-2,1-2,2.8S299.1,96.5,300.4,96.6L300.4,96.6z"/>
<path class="st9" d="M310,90.2v1.1h-1.3v6h-1.6v-6h-1v-1.1h1V89c0-1.6,0.7-2.4,2.3-2.3h1.6v1.1h-1.1c-0.8,0-1.2,0.4-1.2,1.2v1.3
	L310,90.2z"/>
<path class="st9" d="M317.4,97.4v-10h1.6l5.3,7.8v-7.8h1.6v10h-1.5l-5.3-7.6v7.6H317.4z"/>
<path class="st9" d="M331.6,92.8h1.8c0.1-1.2-0.5-1.8-1.8-1.8c-0.9-0.1-1.8,0.5-2.1,1.4h-1.3c0.4-1.6,1.5-2.4,3.4-2.4s3,0.8,2.9,2.6
	v4.9h-3.3c-2,0-3-0.8-3.1-2.2C328.2,93.7,329.3,92.8,331.6,92.8z M333.3,96.6v-2.7h-1.9c-1.4,0-2.1,0.5-2.1,1.4s0.6,1.3,1.9,1.3
	L333.3,96.6z"/>
<path class="st9" d="M336.9,97.4v-7.3h3.7c2,0,3,0.9,2.9,2.8v4.6H342V93c0-1.2-0.6-1.9-1.8-1.9h-1.6v6.2L336.9,97.4z"/>
<path class="st9" d="M344.3,100v-0.9c0.3,0.1,0.7,0.2,1,0.2c0.6,0,0.9-0.3,0.9-1.1v-7.9h1.6v7.8c0.1,1.6-0.6,2.3-2,2.3
	C345.3,100.4,344.8,100.2,344.3,100z M346.2,88.8v-1.5h1.6v1.4L346.2,88.8z"/>
<path class="st9" d="M350.4,88.8v-1.5h1.6v1.5H350.4z M350.4,97.4v-7.1h1.6v7.1H350.4z"/>
<path class="st9" d="M354.4,97.4v-7.3h3.7c2,0,3,0.9,2.9,2.8v4.6h-1.6V93c0-1.2-0.6-1.9-1.8-1.9h-1.6v6.2L354.4,97.4z"/>
<path class="st9" d="M363.5,99.2V98c0.7,0.8,1.8,1.3,2.9,1.3c1.6,0,2.4-0.7,2.4-2.1h-1.7c-2.6,0-3.9-1.1-3.9-3.3
	c0.1-2.4,1.4-3.6,3.9-3.7h3.2v6.7c0.1,2.4-1.1,3.5-3.6,3.4C365.6,100.4,364.4,100,363.5,99.2z M368.7,96.2v-5h-1.2
	c-1.3-0.2-2.5,0.8-2.6,2.1c0,0.2,0,0.4,0,0.5c0,1.6,0.9,2.4,2.6,2.4L368.7,96.2z"/>
<path class="st9" d="M386.1,87.3h2v10h-1.5v-7.4l-2.9,7.4h-1.4l-2.9-7.4v7.5h-1.5v-10h2.1l3,8.2L386.1,87.3z"/>
<path class="st9" d="M397.7,94.3h-5.7c0,1.3,1.1,2.3,2.4,2.3c0.1,0,0.1,0,0.2,0c1.2,0,2.3-0.6,3-1.5v1.2c-0.9,0.9-2.1,1.4-3.4,1.3
	c-2.5-0.1-3.8-1.3-3.9-3.6c0.1-2.5,1.3-3.8,3.7-3.9S397.8,91.5,397.7,94.3z M392.1,93.2h4c0.1-1.1-0.7-2-1.8-2.1c-0.1,0-0.2,0-0.3,0
	C392.9,91.2,392.3,91.9,392.1,93.2z"/>
<path class="st9" d="M403.7,90.1h1.5v-3.4h1.6v10.8h-3.1c-2.5,0-3.8-1.2-3.9-3.7S401.2,90.1,403.7,90.1z M405.2,96.6v-5.4h-1.2
	c-1.7,0-2.5,0.9-2.5,2.7s0.9,2.7,2.5,2.7H405.2z"/>
<path class="st9" d="M409.5,88.8v-1.5h1.6v1.5H409.5z M409.5,97.4v-7.1h1.6v7.1H409.5z"/>
<path class="st9" d="M420.6,92.6h-1.6c-0.2-0.9-1-1.5-1.9-1.4c-1.3,0.1-1.9,1-2,2.7s0.9,2.7,2.5,2.7c1.2-0.1,2.3-0.7,3-1.7v1.3
	c-0.8,1-2.1,1.5-3.4,1.4c-2.4-0.1-3.6-1.3-3.8-3.7c0.1-2.4,1.3-3.7,3.7-3.8C418.8,89.9,420.3,91,420.6,92.6z"/>
<path class="st9" d="M426.1,92.8h1.8c0.1-1.2-0.5-1.8-1.8-1.8c-0.9-0.1-1.8,0.5-2.1,1.4h-1.3c0.4-1.6,1.5-2.4,3.4-2.4s3,0.8,2.9,2.6
	v4.9h-3.3c-2,0-3-0.8-3.1-2.2C422.7,93.7,423.8,92.8,426.1,92.8z M427.8,96.6v-2.7H426c-1.4,0-2.1,0.5-2.1,1.4s0.6,1.3,1.9,1.3
	L427.8,96.6z"/>
<path class="st9" d="M431.6,97.3V86.7h1.6v10.6H431.6z"/>
<path class="st9" d="M440.1,93.2v-5.8h1.6v6.2c0,2,0.9,3.1,2.6,3.1s2.7-1,2.6-3.1v-6.2h1.6v5.8c0.1,3.1-1.3,4.6-4.3,4.5
	C441.4,97.6,440,96.2,440.1,93.2z"/>
<path class="st9" d="M450.8,97.4v-7.3h3.7c2,0,3,0.9,2.9,2.8v4.6h-1.6V93c0-1.2-0.6-1.9-1.8-1.9h-1.6v6.2L450.8,97.4z"/>
<path class="st9" d="M459.5,88.8v-1.5h1.6v1.5H459.5z M459.5,97.4v-7.1h1.6v7.1H459.5z"/>
<path class="st9" d="M465.8,97.3l-2.7-7.1h1.7l1.9,5.8l2-5.8h1.8l-2.8,7.1L465.8,97.3z"/>
<path class="st9" d="M479.4,94.3h-5.7c0,1.3,1.1,2.3,2.4,2.3c0.1,0,0.1,0,0.2,0c1.2,0,2.3-0.6,3-1.5v1.2c-0.9,0.9-2.1,1.4-3.4,1.3
	c-2.5-0.1-3.8-1.3-3.9-3.6c0.1-2.5,1.3-3.8,3.7-3.9S479.4,91.5,479.4,94.3z M473.7,93.2h4c0.1-1.1-0.8-2-1.9-2.1c0,0-0.1,0-0.1,0
	C474.6,91.2,473.9,91.9,473.7,93.2z"/>
<path class="st9" d="M481.8,97.5v-5c-0.2-1.2,0.7-2.3,1.9-2.4c0.2,0,0.4,0,0.6,0h2.3v1.1h-1.8c-0.6-0.1-1.2,0.4-1.3,1
	c0,0.1,0,0.2,0,0.2v5.1H481.8z"/>
<path class="st9" d="M488.2,96.2v-1.2c0.8,1,2,1.6,3.2,1.7c1.1,0,1.7-0.3,1.6-1s-0.5-1-1.6-1.2c-2-0.3-3.1-1.1-3.1-2.3
	s1.1-1.9,2.9-2s2.8,0.8,3.1,2.1h-1.5c-0.1-0.7-0.6-1.1-1.5-1.1s-1.4,0.3-1.4,0.9s0.5,1,1.9,1.2c1.9,0.3,2.8,1.1,2.9,2.3
	c0,1.4-1,2-3.2,2C490.2,97.6,489,97.1,488.2,96.2z"/>
<path class="st9" d="M496.8,88.8v-1.5h1.6v1.5H496.8z M496.8,97.4v-7.1h1.6v7.1H496.8z"/>
<path class="st9" d="M500.5,91.3v-1.1h1.2v-2.9h1.6v2.9h1.6v1.1h-1.6v4.2c0,0.7,0.2,1,0.8,1c0.3,0,0.6-0.1,0.9-0.3V97
	c-0.4,0.3-0.9,0.5-1.5,0.5c-1.3,0-1.9-0.6-1.9-1.9v-4.3H500.5z"/>
<path class="st9" d="M506.7,100v-0.9c0.3,0.2,0.7,0.2,1,0.2c0.6,0,1.1-0.5,1.4-1.3l0.4-0.8l-3-6.9h1.8l2,5.2l1.9-5.2h1.8l-3,7.4
	c-0.7,1.9-1.7,2.8-2.8,2.7C507.5,100.4,507.1,100.3,506.7,100z"/>
<path class="st9" d="M103.1,49l-1.7-1.5l-1.9-1.1l-2-0.3l-1.1,0.1L95,46.6L93.8,47l-1.2,0.4l-0.8,0.2h-0.9l-0.6-0.5h-0.5l-0.9,0.5
	l-0.1,0.2c-0.1,0.2-0.1,0.4-0.1,0.6L88.4,49h-0.6l-0.3-0.3l0.1-0.9l0.2-0.5l0.9-0.6l1.1-0.6l0.6-1.2l1.6-0.9l1.2-0.8l0.8-1l0.3-1.2
	l-0.5-2L93,38.2L91.8,38l-1.9-0.9v-3.4l-0.6-0.9l-1.2-1L87,31.2l-0.7-0.6l-0.7-0.3h-2.4l-1.6,1V40l-4.7,2.7c-0.5-0.1-1-0.1-1.5,0
	c-0.4,0.1-0.9,0.1-1.3,0L72.2,44v0.4h0.5l0.6,0.3l0.5,0.5v0.8l1.5,1.6l1.5,1.7l0.8,0.8h0.8v2.4L78,52.9l-0.9,0.6L76,54
	c0,0-1.2,0.6-1.3,0.7s-0.7,0.4-0.9,0.5s-0.8,0-0.8,0l-0.4,0.3l-0.6,0.8L70.4,57l-0.6,0.7l-0.5,0.8v7c0,0.2,0.3,0.4,0.3,0.4l0.5,0.4
	l0.4,0.6l0.6,0.6v0.3c0.9,2,4.6,1.2,4.6,1.2c1.5-1.2,0.2-4.1,0.2-4.1c-0.6-1.3-1.3-3.3-1.3-3.3l0.1-3.5l0.5,0.2l0.4,0.5l0.6,0.3
	l0.8,0.1l0.3-0.4l0.5-0.5l1.1-0.5l0.1,0.6v0.7l0.4,0.5l2.4,1.8c1.2,0.5,0.3,0.9,0.3,0.9l-0.5,0.3l-0.6,0.3l-0.8,0.3L79.7,64l0.1,0.8
	l0.3,0.8l0.6,1.5l0.8,0.4l1-0.1l1-0.4l1.7,0.1l0.2,1.7c0.5,2.5,2.1,2.3,2.1,2.3c1.6,0.1,2-2.4,2-2.4l0.2-0.6l0.4,0.1l0.8,0.4l5.2,3
	c2.6,1.9,4.2,0.4,4.2,0.4c2.6-1.9,3-8,3-8l0.3-2.9l0.1-6.5l0.7-1.2v-1.2l-0.4-1.8L103.1,49z M86.8,54.3l-1,0.5l-1,0.3l-0.2,0.7h-0.7
	l-0.4-0.4v-0.5l1.4-0.6l1-0.6h0.9L86.8,54.3z M96.3,66.2l-0.4,0.4h-2.8l-1-0.3L90.6,66h-1.2l-0.3-0.4l0.4-0.6l0.6-0.5l1-0.9h0.4
	l0.4-0.3l0.3-0.6l0.5-0.4l0.4-0.4v-0.5l-0.6-0.7l-1.1-0.5h-0.8l-1-0.4h-0.6v-0.6l0.4-0.3l0.4-0.4l0.8-0.6h0.4l0.4-0.4v-1.8l-0.4-0.6
	l-0.6-0.5h-0.6V54l0.4-0.2l0.3-0.5l0.4-0.8l0.8-0.7l1.4-0.8l1.2-0.3l1.2-0.5l1.1-0.3c0.5,1.3,0.6,6.7,0.6,6.7
	C97.4,64,96.3,66.2,96.3,66.2"/>
<path class="st9" d="M125.1,46.9l0.7-0.3h1c2.8-0.9,5.6-1.4,8.5-1.5l0.8-0.1c2.5-0.1,1.2-3,1.2-3c-3.4-2.5-5.4-0.7-5.4-0.7
	c-1.5,0.4-1,0-1,0c-0.2-1.3-0.6-2.5-1.3-3.6l-1.7-1.4l-1.7-0.9l-1-0.6l-0.8-0.3h-0.8l-0.8-0.2c-2.9-0.5-2.3,1.2-2.3,1.2
	c0.8,0.5,2.5,4.8,2.5,4.8c1.5,3-1.4,3.1-1.4,3.1l-0.6,0.3l-0.3,0.8l-1.5,0.3l-2,0.6l-3.3,0.8l-1.2,0.3l-0.8,0.1l-0.4,0.1l-0.7-0.3
	l-0.4-0.1l-0.4,0.3c-0.6,1.8-0.3,3.7,0.7,5.3c1.9,1.7,4.3-0.3,4.3-0.3l1.2-0.8l2.1-0.9C120.5,48.8,122.8,47.8,125.1,46.9"/>
<path class="st9" d="M133.7,61.2l-1.1-0.2l-0.8,0.1l-0.3,0.3h-2.2v-0.3l-0.2-0.5c0,0-0.4-0.5-0.5-0.6s0.1-0.7,0.1-0.7l0.3-0.2
	l0.4-0.3h0.4l1.9-1.2l0.5-0.5l0.1-0.6V56l-0.4-0.5l-0.5-0.3l-0.6-0.2l-0.4-0.3l-0.1-0.2l0.3-0.2l0.4-0.2l0.4-0.1l0.3-0.3l0.2-0.3
	l0.3-0.7l0.6-0.8l0.7-0.7l0.5-0.3v-1.2c0,0-0.3-0.6-0.4-0.7s-0.5-0.6-0.5-0.6l-0.7-0.3l-0.5-0.3l-0.6-0.3h-2.5l-0.5,0.4
	c-1.3,0.4-2.6,1-3.8,1.8l-0.8,0.6l-0.6,0.1l1.4,1.6l1,0.8h0.6l-0.3,0.5v0.3l-0.3,0.4l-0.3,0.7c-0.5,1-0.9,0-0.9,0
	c-0.2-1.2-0.6-2.5-0.6-2.5l-2-1.8H121l-0.4,3.1l0.1,2.5l0.5,2.5l0.7,1.8c0.3,0.5,0.6,1,1,1.4c0.3,0.1,0.5,0.1,0.8,0.1l0.3-0.2
	l0.4-0.1l0.6-0.2l0.5-0.3l0.2-0.7l0.3,0.1l-0.1,2l-1.7,1l-1,0.5c0,0-0.7,0.1-1,0.1h-0.8l-0.8-0.2l-1-0.5l-1-0.5l-1.2,0.3
	c0.3,7.9,4.8,7.5,4.8,7.5l0.7-0.1l0.5-0.3l0.1-0.7l0.1-0.8l0.3-0.3l0.4,0.3l0.6,0.8l0.6,1l0.6,0.9c1.6,1.6,2.8-0.3,2.8-0.3
	c0.5-2.6,0.7-5.3,0.6-7.9l0.2-0.3h0.4l0.4,0l0.5,0.1l0.4,0.3l0.3,0.5l0.1,0.6c1.6,5.3,4.6,5.4,4.6,5.4c2.3,0.3,2.4-2.9,2.4-2.9
	C139,63,133.7,61.2,133.7,61.2 M126,66.7h-0.2c-0.7-0.3-1.4-0.6-2-1c-0.1-0.2-0.5,0-0.5,0V65l2.7-1.8V66.7z"/>
<path class="st9" d="M172.6,46.1h-1.9c0.3-0.4,1.2-3.9,1.2-3.9v-0.7l-0.4-0.6l-0.5-0.3l-0.8-0.3h-0.5l-0.5,0.1l-0.6,0.3l-0.9,0.3
	l-0.7,0.3l-0.3-0.1l-0.1-0.5l0.4-0.3l0.8-0.1L168,40l0.6-0.3l1-0.8l0.6-0.3l0.3-0.5v-0.6l-0.4-0.2l-0.6-0.1l-1.1-0.2l-0.2-0.3
	l0.1-0.2l0.9-0.9l1-0.9l1-1l0.2-0.3v-0.3c0,0-0.2-0.5-0.2-0.6s-0.3-0.3-0.3-0.3c-0.2-0.1-0.4-0.2-0.6-0.3c-0.3-0.1-0.5-0.3-0.8-0.4
	h-1.4l-0.4,0.2l-0.3,0.3l-0.4,0.2l-0.6,0.2l-0.6,0.3l-0.6,0.6l1.3-0.1v1.2l-0.3,0.8l-0.7,0.2v-0.5l-0.4-0.5l-0.4-0.1l-0.9-0.3
	c-0.7,1.3-1.1,2.8-1,4.2l0.2,0.9l0.2,1.1l0.5,0.4c1,0.9,0.4,1,0.4,1l-2,1.9l-0.4,0.4c-0.1,0.1-0.1,0.2-0.1,0.4v0.4l0.1,0.3
	c0.1,0.1,0.3,0.1,0.4,0.2c0.2,0,0.2,0.1,0.2,0.1v0.2l-0.3,0.2l-0.4,0.2h-0.8l-0.1-0.3l0.2-0.4l0.5-0.6v-0.7l-0.4-0.8h-2.6l0.3-0.8
	l0.4-0.5l0.4-0.4l0.3-0.5l0.1-0.7c0,0-0.1-0.5-0.2-0.6s-0.8-0.3-0.8-0.3l-0.7-0.1h-0.8l-0.6,0.5l-0.5,0.5l-0.9,0.5H155l-0.1-0.6
	l0.2-0.5l1.1-1.8c5.7,0.3,5.4-2.5,5.4-2.5l0.1-0.5l-0.2-0.6l-0.5-0.2l-0.5-0.3l-0.8-0.4c-0.8-0.8-2-1.1-3.1-0.7
	c-1.5,1.6-5.5,1.5-5.5,1.5c0.9,1.7,3.5,3.2,3.5,3.2c-0.7,1.6-1.7,3-3,4.1l-0.4,0.5l-0.1,0.5l0.2,0.8l0.3,0.3l0.2,0.8l0.3,0.5
	l0.6,0.5l0.1,0.5l-0.3,0.3l-0.5,0.6l-0.7,0.3c-1.3-1.6-2.1-1-2.1-1c-1.8,0.4-1.3,6.2-1.3,6.4c0.1,0.3,0.2,0.6,0.3,0.9l0.6,0.6
	l1.3,0.5l1,0.2h0.8l0.7-0.1l0.7-0.1l1.2-0.2l1.3-0.3l2.1-0.5l2.2-0.3l-2.1,0.8l-1,0.2l-0.5,0.3l-0.1,0.5l0.6,0.8h0.7l0.7,0.4
	l0.1,0.4l-0.4,0.6c-2.9,2.9-2.2,11.6-2.2,11.6l0.3,0.8c0,0,0.4,0.7,0.5,0.9c0.1,0.2,0.2,0.4,0.3,0.6h0.4l0.3-0.4l0.3-0.4l0.1-0.5
	l-0.1-0.8v-0.7c-0.9-2.7-1-5.6-0.3-8.3l0.1-0.6l0.5-0.3c0.2,0,0.3,0,0.5,0c0.2,0,0.4,0.4,0.4,0.4l0.2,0.9l0.1,1.2l-0.1,0.8
	c0,0-0.3,0.1-0.5,0.2c-0.3,0-0.5,0.1-0.8,0.1l-0.4,0.4l-0.1,0.6l0.3,0.8l0.4,0.2h1.1l1-0.1l1.3-0.4l1.2-0.4l0.9-0.3l0.6-0.4l0.4-0.5
	l0.1-0.5v-0.6l-0.2-0.6l-0.6-0.4l-0.8-0.3l0.3-0.3l0.3-0.5l0.6-0.3l0.8-0.4l0.4-0.1l0.5-0.1l0.6-0.1l0.6-0.2l0.6-0.2
	c0.6,3.3,0,10.3,0,10.3c-0.3,3.1-0.6,2.4-0.6,2.4c-1.2,0.2-3-2.3-3-2.3l-0.5-0.1l-0.3-0.3v-0.4l0.2-0.4l0.5-0.4l0.1-0.8v-0.7
	l-0.6-0.8l-1.2-0.2l-0.9,0.3l-1.5,0.8l-0.6,0.3l-0.9,0.3l-0.2,0.5v0.5l0.5,0.5h0.6v2.3l0.5,0.5l1.2,0.3l1.6,0.3l1.6,0.3l0.4,0.6
	l1.1,1l0.3,0.6v0.6l0.3,0.5h1.8l0.2-0.4l0.4-0.3c2.5-1.1,2.4-5.8,2.4-5.8l0.2-9.8l0.1-0.8L172,57l-2.4-1.5l-0.8-0.2l-0.5,0.1
	l-0.4,0.3l-0.8,0.2l-0.5,0.4H166l-0.4-0.2l-0.1-0.2l0.1-0.6l0.1-0.6c1.7-2.8-1.5-2.8-1.9-3.1s-0.3,0.2-0.5,0
	c-0.1-0.1-0.3-0.2-0.4-0.3h-0.5l0.1-0.4h2.9l0.9-0.5l1.1-0.8l0.8-0.6c2.2-0.2,0.6,0.5,0.6,0.5h0.6h1.7h1L173,50
	c2.4,0.6,2.8-1.3,2.8-1.3C175.8,47.4,172.6,46.1,172.6,46.1 M153.6,50.1v1.5l-0.5,0.3h-0.6v-0.4l0.3-0.6v-0.6l0.8-0.5L153.6,50.1z
	 M162.9,68.5v0.3h-1.4v-0.4l0.4-0.2h1V68.5z M158.4,50.5l-0.7,0.2l-0.9,0.4h-0.4v-1.2l0.3-0.8l0.4-0.7l0.4,0.3l0.7,0.7l0.5,0.8
	L158.4,50.5z M159.9,48.5l-0.8-0.5l-0.7-0.3l1.6-1.3l0.4,0.3v1l1.8,1.6v0.2L161,49L159.9,48.5z M163,55.9h0.4v0.8h-0.6l-0.3,0.4
	l-0.6,0.3h-0.4v-1l0.4-0.2l0.6-0.3L163,55.9z M164.9,49.2c0,0-1.3,0.6-1.8,0l-1.3-0.7l-0.4-0.7v-0.3l1.3,0.6h3.5L164.9,49.2z
	 M168.1,45.3c-1.1,0.2-2.3,0.2-3.4,0c1.2-1,2.6-1.7,4.2-2C168.8,44.1,168.5,44.7,168.1,45.3"/>
<path class="st9" d="M192.7,42.6l1,0.5h2.1l0.5-0.3l0.2-0.8l0.3-0.3v-0.6l-0.3-1l-0.9-1c0,0-0.6-0.4-0.9-0.6
	c-0.2-0.1-0.5-0.3-0.7-0.5l-1-1l-1.1-0.9h-0.7l-0.8,0.4l-0.6,0.7l-2,1.5l-0.6,0.5h-0.6l-0.5,0.3l-1.8,2.5
	C186.9,41.1,192.7,42.6,192.7,42.6"/>
<path class="st9" d="M214.4,45.1l-0.4-0.3l-0.5-0.1h-0.6l-0.6-0.1l-0.6-0.1c-3.3-2.6-4.9-8-4.9-8c-0.2-0.4-0.3-0.8-0.5-1.2
	c-0.5-1.2-0.7-2.6-0.6-3.9l0.4-1.1v-1.9l-0.4-0.3l-0.4-0.5l-0.4-0.6h-1l-0.6,0.5l-0.3,0.8l-0.1,1.1l0.3,2.4l0.5,3l1,4.8v8l-0.4,4.7
	v0.7c-1.7,1.7-7.7,4.9-7.7,4.9l-0.4-0.2c-0.3-3.7,3.5-6.8,3.5-6.8l0.4-0.2l0.3,0.2c1.4,2,2.8,0.9,2.8,0.9l0.4-0.6l0.4-0.7l0.3-0.8
	l-0.6-0.8l-0.6-0.4l-0.6-0.3l-0.6-0.1l-0.9-0.2l-1.2-0.5c-2.4-1.2,0.6-3.7,0.6-3.7l0.5,0.4c0,0,0.4,0.4,0.6,0.5
	c0.2,0.1,0.3,0.3,0.4,0.5l0.5,0.3l0.7-0.3l0.6-0.3l0.4-0.4l0.3-0.8v-1.3l-0.4-0.6l-1-0.5l-1.5-0.6l-1.9-0.4h-1l-0.3,0.5
	c0,0,0.4,0.4,0.6,0.5s0.3,0.6,0.3,0.6l0.3,0.8l-0.4,1.1c-0.8,0.9-1.5,2-1.9,3.1l-0.5,0.8v0.6l-0.6-0.1v-2.4l-0.6-0.2l-1-0.5
	l-1.1-0.6l-1-0.7h-1.9l-0.5,0.3l-0.4,0.5l0.1,0.7l0.3,0.5v1.7l-5.2,3.2h-1.5v-1l-0.3-0.7l-0.5-0.5l-0.3,0.6l-0.5,0.8
	c-0.1,0.4-0.3,0.8-0.5,1.2c-0.3,0.2,0,1.2,0,1.2v2l0.4,1.3l2.2,2l0.8,0.5l0.8-0.1l0.6-0.5l0.8-0.7l-0.1,1.1l-0.4,1.1l-0.5,0.8
	l-0.8,0.7l-0.6,0.6l-0.3,0.8c-0.2,0.2-0.3,0.5-0.4,0.7c-0.1,0.2-0.1,0.5-0.1,0.8l0.1,0.8l0.4,0.9l0.9,1l0.7,0.4h0.7l0.6-0.2l0.4-0.4
	l0.8-0.7l0.1,0.4l0.3,0.6l0.4,0.6l0.6,0.1h0.5l0.4-0.4l0.1-0.6l0.3-0.2l0.5-0.2l0.4-0.2v-3.3l0.2-0.4l0.3-0.5l0.4-0.7l0.2-0.7h1
	c-0.1,3.8,2.4,3,2.4,3l0.6-0.5l0.7-0.3l0.6-0.1l0.7-0.2l0.4-0.5l4.5-2.9v4.9c-0.3,4.3-0.3,8.6-0.1,12.9c0.4,4.3-0.2,3.5-0.2,3.5
	l-2.5-7.6c0.1,4.9,2.6,13,2.6,13l0.4,0.6h0.8l0.4-0.4l0.1-0.6l0.1-2.2l0.1-3l-0.1-7.1l0.1-10.5l0.6-5.2l2-1.6l1.7-1.1l1.2-0.8
	c0.5-0.4,0.9-0.8,1.3-1.2c3.3-3.4,1.8-5.7,1.8-5.7L214.4,45.1z M196.2,49.6l-3.1,3.8l-0.5,0.5h-0.3v-0.5l0.3-1l0.7-1l1.2-1.3
	l1.3-1.2h0.5L196.2,49.6z M210.9,47.7v1.2l-4.1,2.9l-0.2-0.7c0,0,0.9-8-0.6-14.4c0,0,2.5,7.8,4.5,9.9l0.4,0.6V47.7z"/>
<path class="st9" d="M238.2,51.7l0.4-0.4l0.4-0.2h0.6l0.4-0.2l0.4-0.4l0.5-0.5l0.7-0.9l0.2-0.8v-0.7l-0.2-0.9l-0.4-1.2
	c-0.3-0.2-0.6-0.5-0.9-0.7c-0.1,0-0.7-0.4-0.9-0.5c-0.3,0-0.5,0-0.8,0l-0.8-0.1l-0.5-0.1l-0.4-0.3l-0.7-0.2h-0.5l-0.5-0.4l-0.2-2.7
	c0-0.3,0-0.6,0-0.9c0-0.1-0.1-0.2-0.2-0.3l-0.5-0.4c-0.3-0.3-0.6-0.7-0.9-1c-0.3-0.2-0.6-0.3-0.9-0.4c-0.3,0-0.5,0-0.8,0
	c-0.1,0-0.2,0.1-0.3,0.2c-0.1,0-0.2,0-0.3,0l-0.6-0.3l-0.5-0.3h-0.7c-0.2,0.1-0.4,0.1-0.6,0.2c-0.1,0-0.3,0.3-0.3,0.3l-0.1,0.5
	l-0.1,0.8l-0.3,0.2l-0.2,0.6l0.1,0.8h1.1l0.2,0.3l0.2,0.4l0.2,0.5l0.1,0.8c0.2,1.9,0.2,3.8,0,5.7v0.5l-0.3,0.4l-0.8,0.6l-2.1,1.3
	c0,0-0.7,0.3-2,0.8c-0.9,0.3-1.8,0.3-2.6,0l-0.4-0.5l-1,1.1v0.6l0.3,0.5l0.7,0.7l0.5,0.7l0.7,0.8l0.9,1l0.2,0.2
	c2.4,2.1,3.4,1.4,3.4,1.4l0.6,0.1c-0.3,2.2-2.1,4-4.3,4.2h-0.8c-0.2,0-0.4-0.1-0.6-0.2l-0.6-0.3l-0.7-0.5l-0.7-0.3h-0.4l-0.4,0.4V62
	c0.1,0.1,0.2,0.2,0.3,0.4c0.1,0.2,0.3,0.3,0.4,0.4l0.5,0.7l0.7,1.2c1.4,2,6.6,1.1,6.6,1.1l0.6-0.2L229,65l1.9-1.7l2.1-2.5l0.3-0.7
	l0.2-0.5l0.3-1.2l0.6-2.8l0.2-1l0.3-0.6C236.1,53.3,237.2,52.6,238.2,51.7"/>
<path class="st9" d="M244,61.2c-0.2-0.3-0.4-0.7-0.6-1l-0.7-1l-1.4-0.8l-1-0.5l-1-0.6l-1-0.5l-0.5-0.1l-0.7-0.1l-1.8,0.2h-0.2
	l-0.2,0.4v0.5l0.2,0.5l0.4,0.7l0.5,0.4l1,0.8l0.7,0.8l-0.1,0.3l-0.9,0.2c0.8,0.2,1.9,2.2,1.9,2.2l0.3,0.9l0.4,0.6
	c2.7,2.5,4.5,0,4.5,0l0.3-0.6l0.2-0.8c0.1-0.6,0-1.1-0.1-1.7C244.1,61.7,244.1,61.3,244,61.2"/>
<path class="st9" d="M282.4,50.3l-0.6-0.6l-1.2-1l-0.8-0.6v-0.8l-0.3-0.5h-0.8c-0.2,0-0.4,0.1-0.6,0.2c-0.3,0.1-0.6,0.3-0.9,0.5
	l-0.6,0.5l-0.5,0.4l-0.6,0.2l-0.5-0.2l-0.2-0.4l0.1-0.6l0.4-0.3c0.8-2.3,2.9-7.9,2.9-7.9V37c0-0.4,0-0.9,0-1.3
	c-0.1-0.4-0.3-0.7-0.6-1l-1-1l-0.8-0.7l-1-0.5h-1.4V33l-0.4,0.6l-1.7,1.1l-0.9,0.6l-0.8,0.7L269,35l-0.6-0.4h-1l-1.2,0.3l-1,0.5
	L265,36l0.6,0.1l0.6-0.1v1.2l-0.5,0.4v0.5l-0.4,0.5l-0.5-0.2l-0.7-0.1l-0.6-0.2l-0.7-0.1v-3l-0.5-0.5H262l-2.4,0.2l-0.4,0.7
	c2.5,3,1.9,14.3,1.9,14.3l0.4,1.1h-1.3c-1.5-2.7-1.6-11.1-1.6-11.1l-0.7-0.6v-0.6l-0.9-0.5c-3.3,3.4,0.4,12.7,0.4,12.7l0.5,0.5v0.8
	l-0.3,0.4l-0.6,0.3l-0.7,0.3l-0.8,0.4l-0.4,0.1l-0.1-0.9l-0.4-0.3c-2.5,0.8-3.6,6.7-3.6,6.7v1c0,0.5,0,0.9,0,1.4
	c0.1,0.4,0.3,0.8,0.5,1.2c0.1,0.2,0.7,0.9,0.7,0.9l0.7,0.7l0.8,0.1l0.7-0.4l0.4-0.5v-5.4l0.4-2.1l0.3-1.2c0,0,0.2-0.2,0.3-0.2h0.3
	l0.5,0.2c0,0,0.5,0.3,0.6,0.4s0.5,0.3,0.5,0.3l0.5,0.2c0.1,0,0.3,0,0.4,0l0.5-0.1l0.4-0.1l0.6-0.4c3.6-1.7,7.6-2.5,11.5-2.3
	c-1.3,1.7-6.9,2.8-6.9,2.8h-0.5l-0.3,0.4l0.2,0.5l0.5,0.6c0.2,0.2,0.4,0.4,0.6,0.6c0.2,0.1,0.4,0.3,0.5,0.5l-0.1,0.6l-0.3,0.7
	c-0.4,0.6-0.7,1.3-0.8,2c-0.3,0.6-0.6,1.2-1.1,1.7c-2.9,2-2.8,4.5-2.8,4.5l0.2,0.8c0,0,0.3,0.1,0.6,0.2c0.2,0.1,0.4,0.2,0.6,0.4
	l0.4,0.6l0.3,0.5L263,71l0.8,0.4c4.5,4.2,6.8,0,6.8,0l0.4-0.6l0.1-1.4v-1.7c0-0.2-0.1-1.1-0.1-1.1l-0.3-0.5l0.1-0.5h1.9l0.9-0.5
	l1.3-0.9l0.5-0.3l0.3-0.4l0.1-0.5l-0.1-0.7l-0.5-0.9c-0.2-0.1-0.4-0.3-0.6-0.5c-0.3-0.2-0.5-0.4-0.8-0.5c-0.3-0.1-0.7-0.2-1-0.4
	c-0.4-0.1-0.9-0.1-1.4,0h-1.3v-0.3l0.5-0.3l0.5-0.5l0.6-0.8l0.5-0.5l0.1-0.7l0.1-0.8v-1c2.7,0.1,7.9-1.6,7.9-1.6l1.7-0.4l0.7-0.6
	h0.3v-1.1l-0.2-0.5L282.4,50.3z M263.1,39.8V39h1.2l0.3,0.6L265,40v1.1l-1,2.4h-0.5c0,0-0.1-1.1-0.1-1.3c-0.1-0.5-0.2-0.9-0.4-1.3
	L263.1,39.8z M265.1,48v1.5h-0.3l-0.5-0.3l-0.4-0.4l-0.5-0.5v-0.8L264,47h0.6l0.5,0.4L265.1,48z M266,46h-1.2l1.2-3V46z M268.2,68.6
	v0.6l-0.5,0.5H267l-0.4-0.5h-0.4v-1.5L267,67l0.6-0.4h0.6L268.2,68.6z M270.7,47v1.3h-0.5l-0.4-0.5l-0.8-0.7v-0.6l-0.3-0.3V46
	l0.3-0.6l0.5,0.8h1.2L270.7,47z M273.3,36.2v1l-0.3,0.7l-0.2,0.7l-0.4,0.2l-0.5-0.1c-0.7-0.1-1.4-0.2-2.1-0.3c0,0-1.2,0.4-1.4,1.2
	c0,0-0.3,0.7,1.1,1.4l1.3,1l0.6,0.3l0.3,0.3v0.4l-0.2,0.7h-0.2l-0.3,0.3l-0.6-0.3l-2.2-3.3h-0.5v-1.8c0,0,2.6-3.4,5.5-3.1
	L273.3,36.2z"/>
<path class="st9" d="M292.5,45l0.2-0.5c0.1,0,0.3,0,0.4,0c0.1-0.1,0-0.4,0-0.4v-0.7l-0.4-0.8V41l-0.7-0.8l-0.9-0.8l-2-1.9l-2.4-1.5
	l-0.3,0.5l0.3,1.7c0,0,0.4,1.4,0.4,1.6s1.1,2.3,1.1,2.5c0.4,0.8,1,1.5,1.6,2.1c0.4,0.3,0.7,0.7,1,1.1h1.1
	C292.5,45.4,292.6,45,292.5,45"/>
<path class="st9" d="M306.4,51.5l-1.3,0.2c-0.4,0.1-0.7,0.3-1.1,0.3h-0.4l-0.4-0.5l0.1-0.4h0.3l0.4-0.6h0.8v-0.5l0.5-0.5l-0.1-0.4
	l-0.4-0.3l-0.6-0.5l-0.7-0.4c-0.2,0-0.4,0-0.6,0c-0.2-0.1-0.2-0.4-0.2-0.4c0.1-0.2,0.1-0.4,0.2-0.6c0.1-0.2,0.2-0.3,0.3-0.4l0.6-0.4
	l1-0.8l0.5-0.5l0.3-0.3l0.2-0.6l-0.1-0.6c0,0-0.2-0.4-0.4-0.8s-0.5,0-0.5,0c0-0.2,0-0.5,0-0.7l0.5-0.6h0.2l5.3-4.7l1.1-0.6h0.8
	l0.7-0.5l0.6-0.3v-1.1l-0.3-0.8l-0.6-0.9l-1.3-0.6c-0.4-0.2-0.8-0.4-1.1-0.7c-0.3-0.2-0.6-0.4-1-0.5c-0.2-0.2-0.4-0.3-0.5-0.6h-0.6
	l-0.6,0.6v0.6l-0.6,0.6c-0.3,0.1-0.5,0.3-0.8,0.5c-0.2,0.3-0.5,0-0.5,0h-1.2l-0.8,0.6l-1.1,0.5l-1.7,1l-0.5,0.5h-0.2l-0.5-0.4
	l-1.3-1l-1.1-0.3l-1.1-0.3H296l-0.4,0.6l0.1,0.6l0.5,0.1l0.6,0.6l0.7,0.8l1.1,1.2c0.3,0.2,0.5,0.5,0.8,0.8c0.1,0.2,0.2,0.4,0.2,0.6
	l-0.5,0.8l-3,3.2l-1.2,1l-0.3,1.1l-0.1,0.9c0.1,0.5,0.2,1,0.4,1.4c0.2,0.1,0.5,0.3,0.5,0.3l1.1,0.1l0.4-0.1c0.4-0.1,0.5,0.2,0.5,0.2
	l0.1,0.5l-0.2,0.6l-0.4,0.4l-0.7,0.6l-0.5,0.5l-0.4,0.6l-0.3,0.7l-0.1,1.2l0.1,0.7l0.6,0.7h1.5l0.1,0.4l-0.3,0.7l-1.3,1.7l-1.5,1.6
	l-0.3,0.4l-0.8,0.2l-0.2,0.5c-0.1,0.2-0.2,0.4-0.3,0.6c0,0.3,0,0.7,0,1c-0.1,0.6,0,1.1,0.1,1.7c0.2,0.3,0.2,0.3,0.4,0.5
	c0.2,0.1,0.5,0.2,0.8,0.2c0.4,0.1,0.4-0.2,0.4-0.2l0.7-0.6l0.6-0.6l1.3-1.2l1.3-1.2c1.1-0.9,1.1,1.2,1.1,1.2l-0.4,0.9l-0.5,1.2
	l-0.8,1.3l-0.5,0.4l-0.5,0.6l-0.6,0.9l-0.4,1v2.5l0.3,0.2c0.3,0.2,0,0,0.3-0.1c0.2-0.1,0.5-0.2,0.6-0.4l0.2-0.1
	c0.1-0.1,0.2-0.1,0.4-0.1h0.6c0.2,0,0.4,0.3,0.5,0.5s0.1,0.9,0.1,1.1c0,0.4,0,0.8,0,1.1c0,0.4,0.1,0.8,0.1,1.2
	c0.1,0.2,0.2,0.8,0.2,1.1s0.3,0.4,0.4,0.6s0.7,0.8,0.8,1.2s0.5,0.8,0.6,1.2s0.6,0,0.6,0h0.6l0.5-0.4l0.4-0.6
	c0.1-0.2,0.2-0.3,0.3-0.5c0.1-0.2,0.2-0.8,0.2-0.8v-0.5c0-0.2-0.1-0.5-0.1-0.7c-0.1-0.3-0.1-0.5-0.1-0.8l-0.1-1.5l0.3-7.2
	c2.3,1.2,5,1.4,7.5,0.5c6.6-2.5,5-9.8,5-9.8C314.4,50.8,306.4,51.5,306.4,51.5 M300.3,71.5v0.2h-0.2l-0.6-0.5l-0.2-0.5l-0.3-1
	l-0.5-0.8c-0.1-0.3-0.1-0.7,0-1c0.1-0.2-0.1-0.5,0-0.8c0.1-0.2,0.1-0.4,0-0.6l0.4-0.3l0.3-0.8l0.5-0.6l0.6-0.8h0.2L300.3,71.5z
	 M301.9,36.1c-0.3,0,0-0.2,0-0.2v-0.4l0.2-0.4l0.6-0.6l1-0.7l0.9-0.4l0.5-0.2h0.6l-0.2,0.5l-0.6,0.3l-0.8,0.7l-1,0.7
	c-0.1,0.1-0.2,0.2-0.3,0.4c-0.1,0.1-0.2,0.2-0.4,0.3C302.3,36.1,302.1,36.1,301.9,36.1 M306.1,62.2c0,0-2.8,0.6-3.7-1.3v-2.7l1-1.2
	l0.4-1.3l0.6-0.9l0.8-0.5l1.3-0.5h2.2c0.3,0,0.6,0,0.9,0c0.3,0,0.5,0,0.8,0l0.4,0.6v1C310.6,55.4,311.1,60.8,306.1,62.2"/>
<path class="st9" d="M346,45.5c-0.5-0.3-1-0.7-1.4-1.1h-1.4l-1.4-0.5h-6.3c-11.6,3.7-10.7,4.6-10.7,4.6h0.8l1.5,0.8l1.6,0.6v6.2
	c0,0-0.7-1.2-0.8-1.5s-0.7-0.8-0.7-0.8l-0.9-0.8l-1.3-0.8l-1.4-0.8l-1.2-0.7l-0.7-0.8h-0.9v3.1l0.6,0.3l0.6,1.4l0.9,1.4l1.2,1.8
	c0,0,1.2,1.4,1.4,1.7s1.8,0.8,1.8,0.8h1.3v-0.9l0.4-0.6l0.6,0.6h11.2l1-0.7l0.7-1.4l-0.1-0.8l-0.2-0.5l1.1-2.3l2.4-2.8l1-1l0.5-1.5
	v-2.1C347,46,346.4,45.7,346,45.5 M334,50.9v1.8l-0.7,1l-0.3,0.8h-1l0.1-2.7l-0.4-1.3l1-0.5l1.6-0.3L334,50.9z M337.5,51.2l-1.2,2.5
	l-0.2,0.5h-0.9l0.4-1l0.4-1.7v-1.7l0.1-0.8l0.9-0.5l1-0.4h0.9L337.5,51.2z"/>
<path class="st9" d="M369.4,52.7l1-1.6l2.1-3.8l2.5-3.8l0.7-0.7l0.6-0.2l0.5-0.5v-0.8c0-0.2-0.1-0.5-0.2-0.7c-0.2-0.2,0-0.7,0-0.7
	l-0.6-0.4c-0.2-0.1-0.4-0.3-0.6-0.4c-0.3-0.2-0.6-0.3-0.9-0.5l-0.8-0.1v-0.7l-0.4-0.5c-0.1,0.1-0.3,0.2-0.4,0.2
	c-0.2,0.1-0.5,0.3-0.7,0.4s-0.7,0.6-0.7,0.6v0.7l-0.2,1l-1.4,1.5l-1.6,1.8h1.1l-0.2,0.7v0.5l-0.5,1.1l-2.7,6.2l-0.2,0.4l-0.2-0.3
	l0.1-5.9c0.2-2,2.2-3.7,2.2-3.7l0.5-0.3v-0.7l-0.6-1l-2.2-1.3h-1.4l-5,3.6h-0.8l0.1,0.7l0.7,0.9l0.8,1.1l0.8,1.1l0.7,0.7l0.6-0.1
	l0.4-0.1l0.1,3.2l-0.8-0.1l-0.5-0.3l-1.1-0.4l-1-1l-0.8-0.8l-0.4,1.6v14.1l0.5,0.5v0.9l1,0.9l0.4,0.4h0.7l0.4-0.2l0.5-0.4v-0.4
	l-0.2-0.6l-0.2-0.7l-0.1-1.2l-0.1-1.4l0.3-2l0.2-1.9l0.4-1.4l0.1-0.9l-0.3-0.2l-1,2.8L360,57l0.1-1.3c0,0,0.2-0.9,0.5-1.5
	c0-0.3,0.1-0.6,0.1-0.9c0-0.2,0-0.5-0.1-0.7c-0.1-0.2,0.2-0.6,0.2-0.6h1.3l0.1,1l0.3,0.8l0.7,0.7l0.9,0.7l0.9,0.4l0.4,1.2l0.6-0.1
	l0.6-0.7h1.2V64l0.9,0.5c0,0,0.7,0.6,0.9,0.8c0.2,0.1,0.3,0.2,0.5,0.3h0.5l0.5-0.6c0.2-0.2,0.3-0.4,0.4-0.6c0.1-0.2,0.2-0.7,0.2-0.7
	l-0.1-0.6l-0.5-0.8l-0.6-1.7l-0.4-1.7l-0.1-2v-2.2l-0.6,0.3c0,0-0.1-0.4-0.1-0.6s0.1-0.6,0.1-0.8C369.3,53.4,369.4,53,369.4,52.7"/>
<path class="st9" d="M391.6,43.9l-0.8-1l-1.1-0.8l-1.3-1.3l-1.2-1.7c-0.2-0.4-0.4-0.9-0.5-1.3c0-0.3-0.1-0.5-0.1-0.8l0.1-1l0.3-0.7
	l0.4-0.4l0.4-0.4v-1l-0.4-0.6l-0.7-0.7c0,0-1-0.5-1.2-0.6s-0.8,0-0.8,0h-1.1l-0.8,0.4l-0.4,0.7l-0.1,1.2l0.4,1.3l0.5,0.7v9.3h-0.9
	c-2.2,1.2-4.6,2.1-7.1,2.7c0,0-0.8,0-1-0.2s-0.4,0-0.9,0l-0.2,0.4v0.7l0.4,0.5l-0.4-0.2l1.2,1l2.1,1.2l2.3,1.3l0.8,0.3l1.3-0.1
	l1-0.2l1.3-0.7l0.2,4l-0.6-0.7c-0.3-0.3-0.7-0.5-1-0.8c-0.2-0.1-1-0.6-1-0.6l-1.5-0.2c-0.5,0.1-1,0.2-1.4,0.4l-1.6,1l-0.9,0.4
	l-0.7,0.2c0,0-0.6,0.5-0.6,0.7c0,0.4-0.1,0.8-0.1,1.2l0.3,1L375,60l1.8,2.5l-0.4,1.1l0.1,0.7l1.1-0.8l0.5,0.4l0.5,0.8l2.2,2.7
	l0.1,0.4l0.4,0.7l1.1,1.2l1.4,1.2l0.7,0.3h0.3l0.4-0.4l0.5-0.4L386,70l0.2-0.4l0.1-0.5l-0.1-1v-1.9l0.1-4.4l0.1-2.6v-8.8l1.1-0.7
	l1-0.8l1.1-0.7l0.3-0.7l0.4-0.3l0.5-0.1l0.4-0.2l0.4-0.5l0.4-0.7c0.1-0.3,0.2-0.5,0.4-0.8c0.2-0.2,0-0.7,0-0.7L391.6,43.9z
	 M377.8,59.9l-0.3,0.7l-0.7-0.7l-0.3-0.5v-0.5h0.7l0.2,0.3l0.3,0.3V59.9z M383,65.3l-1.3-1L380,63l-0.9-0.7l-0.4-0.3v-0.4l1.4-1
	l1.4-0.4h1.5V65.3z"/>
<path class="st9" d="M465.4,44.5l-0.4,0.3l-0.5,0.2c-3.5,1.3-7.2,2.3-10.9,3h-0.4l0.4-0.4c0,0,1.1-0.4,1.2-0.5
	c0.4-0.1,0.7-0.3,1.1-0.4l1-0.3h0.9l1.4-0.3l0.5-0.2l0.7-0.4c0.2-0.2,0.4-0.5,0.6-0.8c0.1-0.2,0.3-0.3,0.5-0.3l0.9-0.1h0.5l0.6,0.1
	l0.4,0.3h0.5l0.3-0.3l0.3-0.3v-0.8l-0.3-0.3l-0.7-0.4l-1.5-0.8l-1-0.8c0,0-0.5-0.7-0.5-0.8c0-0.3,0-0.5,0-0.8l0.3-0.4l1-0.7l1-0.8
	v-1l-0.2-0.3h-0.5l-0.8-0.1c-0.1,0-0.3,0-0.4,0c-0.1,0-0.6-0.1-0.7-0.1l-0.4-0.1v-0.3l0.4-0.4l0.5-0.5l0.3-0.6l0.3-0.5v-1.3
	l-0.5-0.4l-0.6-0.1h-0.8h-0.6v-0.4l0.3-0.7l0.3-0.6c0-0.2,0-0.4,0-0.7v-0.6l-0.5-0.5l-0.5-0.5h-1.5v0.7l-1.4,3.8l-0.7,2.6
	c0,0,0.3,0.9,0.3,1s0.5,0.5,0.5,0.5l0.7,0.1h0.8v0.4l-1,0.7l0.3,0.3h0.8l0.7-0.1l0.5-0.5l0.5-0.1v0.5c-0.2,0.1-0.3,0.3-0.5,0.4
	c-0.1,0-0.8,0.5-0.8,0.5l-1.2,0.3h-1.2l-0.6,0.7c-0.6,0.2-1.2,0.5-1.8,0.8c-0.1,0.1-0.6,0.2-0.6,0.2c-0.2,0-0.4,0-0.5,0
	c-0.1,0-0.2-0.3-0.2-0.3l0.4-0.7l1.3-0.8l0.6-0.4l0.2-0.4v-0.6l-0.5-0.5l-0.5-0.2c0,0-0.5-0.3-0.6-0.4c-0.2-0.1-0.4-0.1-0.6-0.1
	c-0.1,0-0.6,0.4-0.6,0.4s-0.9,0.8-1,0.9c-0.3,0.2-0.6,0.3-1,0.5c-0.1,0.2-0.5,0-0.5,0h-0.4l-0.1-0.7l0-1c1.9-0.3,3.6-1,5.1-2.2
	l0.6-0.7v-0.4l-0.3-1.1l-0.3-0.7l-0.5-0.9l-0.6-0.4l-1-0.3l-0.9,0.3l-3.2,1.5c-1,0.4-2,0.6-3.1,0.6l-0.2,0.8l0.1,0.9l1.1,1.5
	l1.2,1.1l0.4,0.1l-0.2,0.8l-0.7,1.1l-0.4,1.5v0.8l0.4,0.5l0.8,0.3h0.7l0.1,0.6l-0.4,0.3l-1.1,0.6l-0.9,0.6l-0.2-0.3v-0.5l-0.1-0.6
	l-0.5-0.6l-0.9-0.8l-0.8-0.3l-0.5,0.3l-0.1,1.5l0.1,3.8l0.5,3.4l0.4,1.3l0.5,0.1h0.8l0.8-0.1l0.7-0.3l2.1-0.5l3.1-1.2l0.5-0.3
	l0.3,0.2l-0.1,0.5l-0.7,0.4l-3.2,1.2l-7.7,3.1c0,0-1.5,0.1-1.6,0.2c-0.3,0-0.5,0-0.8,0h-0.5l-0.4,0.3v0.5l0.3,1l0.8,0.9l0.4,0.4
	c0.1,0.1,0.6,0.1,0.6,0.1l0.7-0.3l0.8-0.5l4-1.8l5.8-2.5l0.3-0.2l0.3,0.1v0.4l-0.1,0.3c-0.8,0.9-1.6,1.9-2.1,3
	c-1.6,3.1-1.5,8.8-1.5,8.8l-0.1,0.7l-0.2,0.4l0,1.1l0.6,1l0.4,0.7l0.6,0.3l0.6,0.1l0.5-0.2l0.5-0.4l0.3-0.6l0.2-0.5
	c0-0.2,0-0.3-0.1-0.4c0-0.1-0.2-0.5-0.2-0.6s-0.2-0.8-0.2-0.8l-0.2-0.7c-0.3-2.6-0.3-5.2,0-7.8l0.5-0.8L451,55l0.4,0.1l0.4,0.5
	l0.3,1.1v0.7h-0.5l-0.7,0.1l-0.4,0.4l-0.2,0.6l0.5,0.6l0.7,0.5l0.8,0.2h0.7l0.7-0.3l1.3-0.4l1.4-0.2l0.4-0.3l0.5-0.5l0.6-0.9
	l0.2-0.6l-0.2-0.5c-0.1-0.1-0.2-0.2-0.3-0.3h-0.6h-0.6l-0.1-0.3l0.3-0.7l1.1-1.1c1.7-1.2,1.9,0.8,1.9,0.8c1.3,9-0.2,13.6-0.2,13.6
	l-0.4,0.4h-0.6c-0.1,0-1-0.3-1-0.3l-2.5-0.9V67h1.9c0.2,0,0.4,0,0.7-0.1c0.1-0.1,0.2-0.1,0.3-0.2l0.7-0.6l0.5-0.6v-0.4
	c0-0.2,0-0.4-0.1-0.6c0-0.1-0.1-0.3-0.2-0.4l-0.5-0.3c-0.2-0.1-0.4-0.1-0.6-0.1h-0.9l-1.4,0.1l-0.3-0.2l0.3-0.4l0.8-0.3l0.7-0.5
	l0.4-0.5l0.1-0.5l-0.1-0.8l-0.5-0.5h-0.5h-1c0,0-1.2,0.1-1.3,0.2s-0.9,0.4-0.9,0.4l-1.4,0.5l-0.5,0.5l0.1,0.8l0.5,0.8l0.6,0.3
	l0.8-0.1h1.2l-0.2,0.5l-0.5,0.3l-0.5,0.2l-0.8,0.2c-0.4,0-0.8,0-1.1-0.1l-0.3,0.4c0,0,0,0.5,0,0.6c0,0.2,0.1,0.4,0.1,0.6l0.5,0.6
	l0.8,0.1L454,67v0.4l0.4,0.3l0.9,0.3l1.1,0.7c0,0,1.7,1.3,1.8,1.4c0.1,0.1,0.2,0.2,0.2,0.4c0.1,0.2,0.3,0.4,0.5,0.6l1.2,1
	c2,2,2.9,0.4,2.9,0.4c3.3-5.3,1.3-19.7,1.3-19.7c-0.1-1.5-1.3-2.7-2.8-2.8h-2.4v-1.7h0.9l3-0.9l2.6-0.5l1.9-0.1
	c1.6-0.5,0.7-1.4,0.7-1.4C466.6,43.8,465.4,44.5,465.4,44.5 M448.1,48l-2.5,0.4v-1.5l2.5-1.5V48z M456.3,44.7l-0.5-0.6
	c0,0-0.5-0.5,3.6-1.1C459.4,43,457.8,45.6,456.3,44.7 M458.9,35.1l-0.4,0.5h-1.2l0.7-1.5l0.8-1.6h0.8V33L458.9,35.1z M450.7,46.4
	l-0.8,0.5l0.3-0.9l0.5-0.7h0.4l0.3,0.8L450.7,46.4z M452.8,44.7l-1.6-0.3l0.3-0.6l1.7-0.9l1.2-0.5l0.8-0.8l0.3-0.6l0.1-0.5
	c0.4,0.6,1.3,0.8,1.9,0.4c0,0,0.1,0,0.1-0.1l2.2-0.8v1.3c0,0-5.1,0.1-5.8,2l0.5,1.3L452.8,44.7z M454.9,55.6h-0.5v-1.1l0.3-0.6
	l0.6-0.2l0.2,0.7L454.9,55.6z M456.6,50.7l-1.3,0.4H454v-1c0.8-0.3,1.7-0.6,2.6-0.7L456.6,50.7z"/>
<path class="st9" d="M483.9,49.3l0.1-6.4l1.8-2.5l0.5-0.7v-1.8l-0.3-0.4l-1.8-1.1l-1.3-0.8h-1.1l-1.1,0.5l-4.2,2.1l-0.9,0.4l0.6,1.4
	l1.1,2l1.5,1.5l0.9,0.3h1.1l0.5,4.5v1.3l-1.2-1.2l-0.1-0.4l-0.2-0.6l-0.7-0.6h-2.4v1l-0.1,1.7l-0.8,4.8l-0.1,5.1l-0.3,4.8l0.3,1.1
	c0.1,0.3,0.3,0.6,0.4,0.9c0.1,0.2,1,1,1,1l0.5,0.4h0.5l0.4-0.3l0.4-0.4l0.1-0.7l0.4-1.2l0.7-2.4l0.3-2.7l0.8-2.6l1.1-3.7h0.9
	l0.7-0.3l0.4-0.5l0.1-1.1l-0.1-1.5L483.9,49.3z M481.4,52.4v1l-2.1,3.8l-1.1,2.1l-0.2-3.3l0.5-2.9l1.3-3.2l1,1.2l0.7,0.5V52.4z"/>
<path class="st9" d="M514.6,63.9c0,0-0.9-9.8-3-14.6l-0.7,0.2l-0.1,0.8l0.2,1.2c0,0,0.9,9.8-1.7,11.5c0,0-1.9,2-6.4,1.9
	c0,0-4,0.7-4.5-0.8c0,0-1.6-1.4-2-7.1l0.2-0.4h0.4l1-1.4l1.4-1.6L501,53l1-1.1c0.1-0.3,0.2-0.5,0.2-0.8c0-0.3-0.5-0.9-0.5-0.9
	l-1.3-0.9l-0.9-0.5l-0.7,0.2l-0.5,0.6c0,0-5.9,3.3-7.6,3.4l2.7-2.8l1-0.6l1.9-0.3c0.4,0,0.8,0,1.3,0c0.3-0.3,0.6-0.6,0.9-1l0.5-0.8
	l-0.2-1.5l-1.3-0.8l-0.7-0.5l-0.6-0.2l-0.2-0.8l1.3-0.3l1.6-0.7l1.3-0.6l0.8-0.3l1-0.2l1.2-0.1l1.4-0.2c0,0,3.7-0.4,1.3-3.6
	l-1.9-1.4l-1.1-0.8l-0.8-0.3c0,0-1.1-0.2-1.3,0c-0.3,0.2-0.6,0.3-0.9,0.3l-0.9,0.3l-0.3-0.3l-0.2-2.3c0,0,0.1-2-3.2-3.1l-0.7-0.3
	l-1-0.4l-0.8-0.4l-0.5,0.3l-0.3,0.7l0.2,1l0.2,0.7l0.7,0.4l0.2,1.1l0.1,1.3l-0.1,1.1l-0.2,0.7l-0.7,0.8l-1.1,0.2l-1.1,0.5l-0.7,0.5
	l-0.5,0.7l-0.5,1h-0.4V39l0.2-0.9c0,0-2.4,2.3-2.4,4.8l-0.6,3.9v1l-0.3,1.4l0.7,1.4l0.9,0.4l0.8-0.3l0.9-0.6l0.3-0.9v-6.6l-0.3-1
	l0.6-1.3l0.6-0.6l0.9-0.1l3.1,0.4l3,1v0.4l-2.3,2.5l-1.9,0.3l-1.1,0.1l-0.5,0.6l-0.4,0.8l-0.3,0.5l0.2,0.8l1.2,0.9l0.6,0.6l0.1,0.5
	l-0.3,0.4l-4,4.4h-0.7l-0.5,1c0,0-0.7,0.4-0.7,0.9s0.1,1.8,0.1,1.8l0.5,1.1c0,0,0.7,1.1,0.8,0.9s0.5,0.3,0.7,0
	c0.3-0.3,0.6-0.6,1-0.8l4.9-2.5l-2.7,3.4l-4.2,6.3l-1.3,1.8l-0.1,1.3l0.6,0.8c0,0,0.5,0.5,0.7,0.5h0.8l0.7-0.4l2.2-3.6l3-4.5
	l0.4-0.2l0.3,0.4l0.5,2.9l0.3,1.4l3.6,3l2,0.2l7.8-0.4l3.3-0.5C511.7,68.7,514.8,69.4,514.6,63.9"/>
<path class="st9" d="M430.1,54.9l-1.3-0.8l-2.3-0.8l-1-0.1l-0.5,0.2l-0.8,0.5l-0.7,0.3l-2.3,0.5l-2.6,0.8l-2.2,0.6l0.1-1.2h2.3
	l0.8-0.4l0.5-0.4l0.4-0.7l-0.2-0.6l1.1-0.8l1.4-1.3l0.8-0.5v-1.3c0-0.2-0.5-0.5-0.5-0.5l-0.8-0.7l-1.1-0.9l-0.7-0.1l-0.7,0.2
	l-0.9,0.6l-1.3,0.5l-1.2,0.4v-0.8l0.7-0.4l2.3-0.7l1.3-0.5h1.1l0.8-0.4l0.4-0.3v-1.3l-0.6-0.4c-0.2-0.1-0.5-0.2-0.7-0.2l-1.2-0.1
	c-0.3,0.1-0.5,0.1-0.8,0.2L419,44l-0.8,0.4l-0.7,0.6h-1.1l0.1-0.7l0.4-0.5h0.7l1-0.4h0.7l0.8-0.3l0.6-0.5l0.5-0.8v-0.7l-0.5-0.7
	l-0.5-0.3h-1.6l-0.6-0.4l0.2-0.4l0.6-0.3l0.6-0.6c0,0,0.9-0.8,0.8-1s-0.3-0.2-0.3-0.2H419c0,0-0.7,0-0.9-0.3s-0.4,0-0.4,0v-0.5
	L418,36l0.5-0.5l0.7-0.8l1.1-1.2c1.7-1.6,0-2.8,0-2.8l-2.4-1.7l-1.8-0.5h-1.3l-1.6,0.6l-3.8,1.6l-1.6,0.3l0.2,0.7l0.2,0.3l2.7,2.6
	l0.5,0.2l0.5,0.4v0.8l-0.8,1l-1.6,2l-0.5-0.7l-0.5-0.4l-0.7-0.4l-0.8-0.2l-0.4,0.4v0.8l-0.1,1.2l-0.2,1.5l-0.7,2l-1.7,4l-2.8,5.5
	l-2.5,5l-2,3.8l-2.7,4c-0.2,0.1-0.4,0.2-0.6,0.3c-0.1,0-0.2,0-0.3,0.1v1.6l0.4,0.8l0.6,0.7l0.5,0.2l0.7-0.1l0.6-0.4l0.6-0.8l1.7-2.8
	l2.4-4.2l2.3-5l2.5-5.5l0.4-0.6l0.2,0.5l0.2,0.7l0.2,0.5l0.5,0.5l0.6,0.1c1.2-1.9,6.4-3.3,6.4-3.3l0.1,0.8l-2.6,0.9l-0.2,0.9h-0.8
	c-0.2,1.7-0.3,3.3-0.1,5l0.5,0.7l0.2,0.4l-0.2,0.5l-0.8,0.3c-0.2,0-0.4,0-0.6,0.1s-0.4-0.1-0.6-0.1c-0.3-0.1-0.6-0.3-0.8-0.6h-0.7
	l-0.4,1.5l-0.6,0.3l-1.4,0.5c-0.4,0.1-0.8,0.1-1.2,0c-0.2-0.1-0.9,0-0.9,0l-0.2,0.7l-0.6,0.8v0.7l1,0.8l0.5,0.7l0.4,0.9l1,0.1
	l0.5-0.5l1-0.1V65l0.4,0.4l1.3,1.6l1,0.9l0.7-0.2l0.8-0.6l0.2-0.8l-0.3-1.2l-0.4-1.2v-1.6l0.9-0.5l1.4-0.6l1.4-0.5l0.2,1l-0.7,0.3
	l-0.6,0.2l-0.6,0.6l-0.1,1l0.7,1l1.2-0.1l0.8-0.2l0.7-0.7l1.8-1.1l1.4-1.1c0.8,1.7,2.6,2.6,4.4,2.1c1.7-4.1-1.4-6-1.4-6l0.2-0.4
	l0.6-0.2l1.3-0.1l1.6,0.2v2.5l-0.5,3l-1.1,2.6c-0.2,0-0.4,0-0.6,0c-0.3,0-0.6,0-0.9,0H421c-0.4,0.1-0.7,0.1-1.1,0
	c-0.2-0.1-1,0-1.1,0c-0.4-0.1-0.7-0.2-1.1-0.4l-1.3-0.3l-1-0.2l-0.1,0.8l0.4,0.4l1.3,0.5l1.2,0.4l2.5,1.4l1,0.8l3.2,1.9h1.8l0.4-0.3
	l0.2-0.4l0.1-0.6l0.7-1l1.1-2.3l1-3.6l0.5-2.7v-4.2L430.1,54.9z M417.1,50.8l0.5-0.2h0.5l0.4,0.5l-0.2,0.5h-0.4l-0.5,0.3h-0.5
	l-0.2-0.3L417.1,50.8z M414,57l-0.7,0.4l-0.4-0.4l-0.1-0.8l-0.3-0.8l-0.3-0.5l-0.3-0.4V54h0.4l0.3,0.4l0.3,1l0.5,0.3l0.8-0.2L414,57
	z M413.1,52.9l-0.8,0.3h-0.5l-0.2-0.2v-1.5h0.8l0.8,0.3l0.7,0.2l0.2,0.4L413.1,52.9z M414,46.2l-4.5,2.1l-2,0.6h-1.1l2-4.1l0.2-0.6
	h0.5l1.2,1.1l0.6,0.7h0.5l0.8-0.3c0.1,0,1.3-0.6,1.3-0.6h0.5V46.2z M414.6,41.2v0.5l-0.5,0.1l-0.7,0.3l-3.1,1.3l-0.9,0.2l-0.2-0.2
	v-0.6l0.2-0.5l0.5-0.5l2.8-0.8l1.4-0.4h0.5V41.2z M417.8,59.9l-0.1,0.1l-0.3,0.2l-0.5,0.2l-0.7,0.4l-0.3,0.2l0.2-0.3l0.3-0.3
	l0.3-0.2L417,60l0.3-0.2L417.8,59.9L417.8,59.9z"/>
</svg>
